<mxfile host="app.diagrams.net" modified="2023-03-23T10:10:35.253Z" agent="5.0 (Windows NT 10.0; Win64; x64) AppleWebKit/537.36 (KHTML, like Gecko) Chrome/111.0.0.0 Safari/537.36" etag="cQmA2oCTf8Gk_ng7tva-" version="21.0.10" type="github">
  <diagram name="Page-1" id="phTLCLh_cDoAjve7R9aZ">
    <mxGraphModel dx="2257" dy="1944" grid="1" gridSize="10" guides="1" tooltips="1" connect="1" arrows="1" fold="1" page="1" pageScale="1" pageWidth="827" pageHeight="1169" math="0" shadow="0">
      <root>
        <mxCell id="0" />
        <mxCell id="1" parent="0" />
        <mxCell id="kgq3jWwaP5zjxBJybWtD-12" value="Research Topic" style="rounded=1;whiteSpace=wrap;html=1;" vertex="1" parent="1">
          <mxGeometry x="-140" y="10" width="120" height="60" as="geometry" />
        </mxCell>
        <mxCell id="kgq3jWwaP5zjxBJybWtD-14" value="" style="endArrow=classic;html=1;rounded=0;exitX=0.5;exitY=1;exitDx=0;exitDy=0;" edge="1" parent="1" source="kgq3jWwaP5zjxBJybWtD-12" target="kgq3jWwaP5zjxBJybWtD-15">
          <mxGeometry width="50" height="50" relative="1" as="geometry">
            <mxPoint x="180" y="180" as="sourcePoint" />
            <mxPoint x="-80" y="110" as="targetPoint" />
          </mxGeometry>
        </mxCell>
        <mxCell id="kgq3jWwaP5zjxBJybWtD-15" value="Create Question on topic" style="rounded=1;whiteSpace=wrap;html=1;" vertex="1" parent="1">
          <mxGeometry x="-140" y="110" width="120" height="60" as="geometry" />
        </mxCell>
        <mxCell id="kgq3jWwaP5zjxBJybWtD-16" value="" style="curved=1;endArrow=classic;html=1;rounded=0;exitX=1.025;exitY=0.553;exitDx=0;exitDy=0;exitPerimeter=0;" edge="1" parent="1" source="kgq3jWwaP5zjxBJybWtD-15" target="kgq3jWwaP5zjxBJybWtD-17">
          <mxGeometry width="50" height="50" relative="1" as="geometry">
            <mxPoint x="180" y="180" as="sourcePoint" />
            <mxPoint x="60" y="40" as="targetPoint" />
            <Array as="points">
              <mxPoint x="-10" y="150" />
              <mxPoint x="60" y="160" />
              <mxPoint x="-10" y="40" />
            </Array>
          </mxGeometry>
        </mxCell>
        <mxCell id="kgq3jWwaP5zjxBJybWtD-17" value="Initial ideas and Research.&lt;br&gt;Half Draft&amp;nbsp;" style="rounded=1;whiteSpace=wrap;html=1;" vertex="1" parent="1">
          <mxGeometry x="60" y="10" width="120" height="60" as="geometry" />
        </mxCell>
        <mxCell id="kgq3jWwaP5zjxBJybWtD-18" value="Edit Draft" style="rounded=1;whiteSpace=wrap;html=1;" vertex="1" parent="1">
          <mxGeometry x="60" y="110" width="120" height="60" as="geometry" />
        </mxCell>
        <mxCell id="kgq3jWwaP5zjxBJybWtD-19" value="" style="endArrow=classic;html=1;rounded=0;exitX=0.5;exitY=1;exitDx=0;exitDy=0;entryX=0.5;entryY=0;entryDx=0;entryDy=0;" edge="1" parent="1" source="kgq3jWwaP5zjxBJybWtD-17" target="kgq3jWwaP5zjxBJybWtD-18">
          <mxGeometry width="50" height="50" relative="1" as="geometry">
            <mxPoint x="180" y="180" as="sourcePoint" />
            <mxPoint x="230" y="130" as="targetPoint" />
          </mxGeometry>
        </mxCell>
        <mxCell id="kgq3jWwaP5zjxBJybWtD-20" value="" style="curved=1;endArrow=classic;html=1;rounded=0;exitX=1.025;exitY=0.553;exitDx=0;exitDy=0;exitPerimeter=0;" edge="1" parent="1">
          <mxGeometry width="50" height="50" relative="1" as="geometry">
            <mxPoint x="180" y="143" as="sourcePoint" />
            <mxPoint x="257" y="40" as="targetPoint" />
            <Array as="points">
              <mxPoint x="257" y="160" />
              <mxPoint x="187" y="40" />
            </Array>
          </mxGeometry>
        </mxCell>
        <mxCell id="kgq3jWwaP5zjxBJybWtD-21" value="Proof Read Draft" style="rounded=1;whiteSpace=wrap;html=1;" vertex="1" parent="1">
          <mxGeometry x="260" y="10" width="120" height="60" as="geometry" />
        </mxCell>
        <mxCell id="kgq3jWwaP5zjxBJybWtD-22" value="" style="endArrow=classic;html=1;rounded=0;exitX=0.5;exitY=1;exitDx=0;exitDy=0;entryX=0.5;entryY=0;entryDx=0;entryDy=0;" edge="1" parent="1">
          <mxGeometry width="50" height="50" relative="1" as="geometry">
            <mxPoint x="319.8" y="70" as="sourcePoint" />
            <mxPoint x="319.8" y="110" as="targetPoint" />
          </mxGeometry>
        </mxCell>
        <mxCell id="kgq3jWwaP5zjxBJybWtD-23" value="2nd Half Draft" style="rounded=1;whiteSpace=wrap;html=1;" vertex="1" parent="1">
          <mxGeometry x="260" y="110" width="120" height="60" as="geometry" />
        </mxCell>
        <mxCell id="kgq3jWwaP5zjxBJybWtD-24" value="" style="curved=1;endArrow=classic;html=1;rounded=0;exitX=1.025;exitY=0.553;exitDx=0;exitDy=0;exitPerimeter=0;" edge="1" parent="1">
          <mxGeometry width="50" height="50" relative="1" as="geometry">
            <mxPoint x="380" y="143" as="sourcePoint" />
            <mxPoint x="457" y="40" as="targetPoint" />
            <Array as="points">
              <mxPoint x="457" y="160" />
              <mxPoint x="387" y="40" />
            </Array>
          </mxGeometry>
        </mxCell>
        <mxCell id="kgq3jWwaP5zjxBJybWtD-25" value="Edit 2nd Half Draft" style="rounded=1;whiteSpace=wrap;html=1;" vertex="1" parent="1">
          <mxGeometry x="460" y="10" width="120" height="60" as="geometry" />
        </mxCell>
        <mxCell id="kgq3jWwaP5zjxBJybWtD-26" value="Proof Read Draft" style="rounded=1;whiteSpace=wrap;html=1;" vertex="1" parent="1">
          <mxGeometry x="460" y="110" width="120" height="60" as="geometry" />
        </mxCell>
        <mxCell id="kgq3jWwaP5zjxBJybWtD-27" value="" style="endArrow=classic;html=1;rounded=0;exitX=0.5;exitY=1;exitDx=0;exitDy=0;entryX=0.5;entryY=0;entryDx=0;entryDy=0;" edge="1" parent="1">
          <mxGeometry width="50" height="50" relative="1" as="geometry">
            <mxPoint x="519.8" y="70" as="sourcePoint" />
            <mxPoint x="519.8" y="110" as="targetPoint" />
          </mxGeometry>
        </mxCell>
        <mxCell id="kgq3jWwaP5zjxBJybWtD-28" value="Edit Formatting and styling" style="rounded=1;whiteSpace=wrap;html=1;" vertex="1" parent="1">
          <mxGeometry x="660" y="10" width="120" height="60" as="geometry" />
        </mxCell>
        <mxCell id="kgq3jWwaP5zjxBJybWtD-29" value="" style="curved=1;endArrow=classic;html=1;rounded=0;exitX=1.025;exitY=0.553;exitDx=0;exitDy=0;exitPerimeter=0;" edge="1" parent="1">
          <mxGeometry width="50" height="50" relative="1" as="geometry">
            <mxPoint x="580" y="143" as="sourcePoint" />
            <mxPoint x="657" y="40" as="targetPoint" />
            <Array as="points">
              <mxPoint x="657" y="160" />
              <mxPoint x="587" y="40" />
            </Array>
          </mxGeometry>
        </mxCell>
        <mxCell id="kgq3jWwaP5zjxBJybWtD-30" value="Final Proof Read" style="rounded=1;whiteSpace=wrap;html=1;" vertex="1" parent="1">
          <mxGeometry x="660" y="110" width="120" height="60" as="geometry" />
        </mxCell>
        <mxCell id="kgq3jWwaP5zjxBJybWtD-31" value="" style="endArrow=classic;html=1;rounded=0;exitX=0.5;exitY=1;exitDx=0;exitDy=0;entryX=0.5;entryY=0;entryDx=0;entryDy=0;" edge="1" parent="1">
          <mxGeometry width="50" height="50" relative="1" as="geometry">
            <mxPoint x="719.66" y="70" as="sourcePoint" />
            <mxPoint x="719.66" y="110" as="targetPoint" />
          </mxGeometry>
        </mxCell>
        <mxCell id="kgq3jWwaP5zjxBJybWtD-32" value="Submission" style="rounded=1;whiteSpace=wrap;html=1;" vertex="1" parent="1">
          <mxGeometry x="870" y="60" width="120" height="60" as="geometry" />
        </mxCell>
        <mxCell id="kgq3jWwaP5zjxBJybWtD-33" value="" style="curved=1;endArrow=classic;html=1;rounded=0;exitX=1.025;exitY=0.553;exitDx=0;exitDy=0;exitPerimeter=0;entryX=0;entryY=0.5;entryDx=0;entryDy=0;" edge="1" parent="1" target="kgq3jWwaP5zjxBJybWtD-32">
          <mxGeometry width="50" height="50" relative="1" as="geometry">
            <mxPoint x="780" y="143" as="sourcePoint" />
            <mxPoint x="857" y="40" as="targetPoint" />
            <Array as="points">
              <mxPoint x="857" y="160" />
              <mxPoint x="790" y="80" />
              <mxPoint x="820" y="90" />
            </Array>
          </mxGeometry>
        </mxCell>
        <mxCell id="kgq3jWwaP5zjxBJybWtD-34" value="" style="shape=doubleArrow;whiteSpace=wrap;html=1;" vertex="1" parent="1">
          <mxGeometry x="-140" y="-40" width="320" height="30" as="geometry" />
        </mxCell>
        <mxCell id="kgq3jWwaP5zjxBJybWtD-35" value="&lt;b&gt;&lt;font style=&quot;font-size: 24px;&quot;&gt;1-3 Days&lt;/font&gt;&lt;/b&gt;" style="text;html=1;align=center;verticalAlign=middle;resizable=0;points=[];autosize=1;strokeColor=none;fillColor=none;" vertex="1" parent="1">
          <mxGeometry x="-40" y="-80" width="120" height="40" as="geometry" />
        </mxCell>
        <mxCell id="kgq3jWwaP5zjxBJybWtD-36" value="" style="shape=doubleArrow;whiteSpace=wrap;html=1;" vertex="1" parent="1">
          <mxGeometry x="260" y="-40" width="320" height="30" as="geometry" />
        </mxCell>
        <mxCell id="kgq3jWwaP5zjxBJybWtD-37" value="&lt;b&gt;&lt;font style=&quot;font-size: 24px;&quot;&gt;1-3 Days&lt;/font&gt;&lt;/b&gt;" style="text;html=1;align=center;verticalAlign=middle;resizable=0;points=[];autosize=1;strokeColor=none;fillColor=none;" vertex="1" parent="1">
          <mxGeometry x="360" y="-80" width="120" height="40" as="geometry" />
        </mxCell>
        <mxCell id="kgq3jWwaP5zjxBJybWtD-38" value="&lt;b&gt;&lt;font style=&quot;font-size: 24px;&quot;&gt;1 Day&lt;/font&gt;&lt;/b&gt;" style="text;html=1;align=center;verticalAlign=middle;resizable=0;points=[];autosize=1;strokeColor=none;fillColor=none;" vertex="1" parent="1">
          <mxGeometry x="775" y="-80" width="90" height="40" as="geometry" />
        </mxCell>
        <mxCell id="kgq3jWwaP5zjxBJybWtD-39" value="" style="shape=doubleArrow;whiteSpace=wrap;html=1;" vertex="1" parent="1">
          <mxGeometry x="650" y="-40" width="320" height="30" as="geometry" />
        </mxCell>
      </root>
    </mxGraphModel>
  </diagram>
</mxfile>
